<?xml version="1.0" encoding="utf-8"?>
<svg id="svg" version="1.1" width="400" height="400" viewBox="0, 0, 400,400" xmlns="http://www.w3.org/2000/svg">
  <path style="fill: none; stroke: rgb(255, 0, 0); stroke-width: 10px; stroke-linecap: round; stroke-linejoin: round;" d="M 35.334 35.052 C 36.64 129.491 81.99 190.143 170.334 200.052 M 35.235 365.479 C 36.541 271.04 81.891 210.388 170.235 200.479 M 34.927 365.465 C 129.366 364.159 190.018 318.809 199.927 230.465 M 365.354 365.564 C 270.915 364.258 210.263 318.908 200.354 230.564 M 365.02 365.512 C 363.714 271.073 318.364 210.421 230.02 200.512 M 365.119 35.085 C 363.813 129.524 318.463 190.176 230.119 200.085 M 365.427 35.099 C 270.988 36.405 210.336 81.755 200.427 170.099 M 35 35 C 129.439 36.306 190.091 81.656 200 170"/>
  <ellipse style="stroke: rgb(0, 0, 0); fill: rgb(0, 128, 255); stroke-width: 0px;" cx="35" cy="35" rx="17.5" ry="17.5"/>
  <path d="M 35 35 L 52.5 70 L 17.5 70 L 35 35 Z" style="stroke: rgb(0, 0, 0); stroke-width: 0px; fill: rgb(255, 0, 0);"/>
</svg>