<?xml version="1.0" encoding="utf-8"?>
<svg id="svg" version="1.1" width="400" height="400" viewBox="0, 0, 400,400" xmlns="http://www.w3.org/2000/svg">
  <path d="M 35 243.875 C 67.412 224.634 120.71 212.124 180.83 212.124 C 281.143 212.124 362.462 246.954 362.462 289.919 C 362.462 332.882 281.143 367.712 180.83 367.712 C 131.664 367.712 87.06 359.345 59.277 342.828 L 59.277 37.284 M 35 154.851 C 67.412 135.61 120.71 123.1 180.83 123.1 C 281.143 123.1 362.462 157.93 362.462 200.895 C 362.462 243.858 281.143 278.688 180.83 278.688 C 117.721 278.688 62.131 264.903 35 244.056 M 35 65.983 C 67.412 46.742 120.71 34.232 180.83 34.232 C 281.143 34.232 362.462 69.062 362.462 112.026 C 362.462 154.99 281.143 189.82 180.83 189.82 C 117.721 189.82 62.131 176.035 35 155.187" style="fill: none; stroke: rgb(255, 0, 0); stroke-width: 10px; stroke-linejoin: round; stroke-linecap: round;"/>
  <ellipse style="stroke: rgb(0, 0, 0); fill: rgb(0, 128, 255); stroke-width: 0px;" cx="34" cy="65" rx="17.5" ry="17.5"/>
  <path d="M 59 7.5 L 76.5 42.5 L 41.5 42.5 L 59 7.5 Z" style="stroke: rgb(0, 0, 0); stroke-width: 0px; fill: rgb(255, 0, 0);"/>
</svg>